<svg width="55" height="52" viewBox="0 0 55 52" fill="none" xmlns="http://www.w3.org/2000/svg">
<g clip-path="url(#clip0_993_1344)">
<path d="M27.3478 1.59955e-06C22.2556 1.59955e-06 17.2781 1.50996 13.0441 4.33894C8.81036 7.16792 5.51039 11.1888 3.56172 15.8932C1.6132 20.5977 1.10328 25.7743 2.09668 30.7685C3.09008 35.7626 5.54211 40.3501 9.14277 43.9506C12.7434 47.5513 17.3308 50.0033 22.325 50.9967C27.3191 51.9901 32.4958 51.4804 37.2002 49.5317C41.9047 47.5832 45.9255 44.283 48.7545 40.0493C51.5835 35.8153 53.0934 30.8377 53.0934 25.7458C53.0947 22.3644 52.4295 19.0159 51.1361 15.8919C49.8428 12.7677 47.9463 9.929 45.5553 7.53809C43.1645 5.14714 40.3258 3.25077 37.2015 1.95736C34.0775 0.663929 30.7291 -0.00119047 27.3478 1.59955e-06ZM13.74 8.21904C17.6057 5.20172 22.3633 3.55231 27.267 3.52932C32.1709 3.50633 36.9436 5.11109 40.8374 8.09204V10.36C40.8493 11.3964 40.6389 12.4234 40.2207 13.3718C39.9406 13.9436 39.5151 14.4317 38.9868 14.787C38.2194 15.2487 37.3324 15.4728 36.4377 15.4311C34.7404 15.3849 33.0837 15.9554 31.7747 17.0368C30.2868 18.4064 29.2812 20.2202 28.9081 22.2078C28.7207 23.0374 28.5994 23.8807 28.5453 24.7298H25.987C25.9031 23.2676 25.5973 21.8268 25.0798 20.4568C24.6024 19.1367 23.7969 17.9597 22.7393 17.0368C21.4394 15.9569 19.793 15.3834 18.1036 15.4221C17.2089 15.4637 16.3218 15.2396 15.5543 14.778C14.7717 14.2209 14.2174 13.399 13.9941 12.4646C13.8038 11.7765 13.7122 11.0648 13.7219 10.3509L13.74 8.21904ZM10.6012 38.0379C10.4276 38.6522 10.3092 39.2806 10.2474 39.9158C6.94659 35.9332 5.14017 30.923 5.14017 25.7503C5.14017 20.5776 6.94659 15.5673 10.2474 11.5847C10.3488 12.7455 10.6559 13.879 11.1546 14.9322C11.6972 16.0764 12.5408 17.0516 13.5949 17.7534C14.9385 18.594 16.5012 19.0171 18.0855 18.9692C18.9497 18.9254 19.7998 19.2034 20.4713 19.7492C21.3624 20.6314 21.9556 21.7701 22.1677 23.006C22.3084 23.5731 22.4114 24.1489 22.4762 24.7298H20.1447C19.893 24.7535 19.6593 24.8704 19.489 25.0574C19.3189 25.2445 19.2247 25.4883 19.2247 25.7411C19.2247 25.9941 19.3189 26.2379 19.489 26.4249C19.6593 26.612 19.893 26.7289 20.1447 26.7526H22.4762C22.4021 27.7758 22.1853 28.7833 21.8321 29.7463C21.5576 30.5156 21.0963 31.2046 20.4894 31.7512C19.8179 32.2972 18.968 32.5751 18.1036 32.5314C16.5194 32.4835 14.9568 32.9066 13.613 33.747C12.1246 34.7675 11.0551 36.2913 10.6012 38.0379ZM40.8193 43.3904C36.9257 46.3712 32.1527 47.976 27.2489 47.9531C22.3452 47.93 17.5876 46.2806 13.7219 43.2634V41.1224C13.695 40.0843 13.8964 39.0531 14.3115 38.1015C14.5792 37.5247 14.9995 37.0321 15.5272 36.6772C16.2957 36.2187 17.1826 35.9978 18.0763 36.0422C19.7748 36.1005 21.4373 35.5431 22.7574 34.4729C24.2508 33.1062 25.26 31.2916 25.6331 29.3019C25.8182 28.4719 25.9364 27.6286 25.987 26.7799H28.5453C28.6335 28.2414 28.9394 29.6814 29.4523 31.0527C29.9281 32.3691 30.7267 33.5451 31.7747 34.4729C33.085 35.5531 34.7399 36.1263 36.4377 36.0875C37.3314 36.0431 38.2183 36.264 38.9868 36.7227C39.7642 37.2711 40.3157 38.0836 40.5382 39.0086C40.7251 39.6976 40.8198 40.4086 40.8193 41.1224V43.3904ZM44.3029 40.0701C44.2205 38.8537 43.913 37.6632 43.3957 36.5593C42.8467 35.4164 42.0008 34.4419 40.9464 33.7379C39.606 32.8978 38.0461 32.4745 36.4649 32.5224C35.5922 32.5774 34.7309 32.302 34.0518 31.7512C33.1593 30.8736 32.5658 29.7373 32.3553 28.5035C32.2257 27.9301 32.1378 27.3479 32.0923 26.7618H34.3875C34.5283 26.7751 34.6704 26.7589 34.8046 26.7142C34.9389 26.6693 35.0624 26.5971 35.167 26.5018C35.2718 26.4066 35.3554 26.2906 35.4126 26.1612C35.4698 26.0317 35.4994 25.8917 35.4994 25.7503C35.4994 25.6088 35.4698 25.4688 35.4126 25.3394C35.3554 25.2099 35.2718 25.0939 35.167 24.9986C35.0624 24.9035 34.9389 24.8312 34.8046 24.7863C34.6704 24.7416 34.5283 24.7255 34.3875 24.7388H32.0923C32.1629 23.716 32.3766 22.7084 32.7273 21.7451C32.9948 20.9795 33.4501 20.2932 34.0518 19.7492C34.7224 19.2018 35.5731 18.9237 36.4377 18.9692C38.0189 19.0169 39.5787 18.5938 40.9191 17.7534C42.4116 16.7312 43.4844 15.2042 43.94 13.4535C44.1259 12.7893 44.2475 12.1088 44.3029 11.4213C47.6942 15.4257 49.5552 20.5029 49.5552 25.7503C49.5552 30.9976 47.6942 36.0749 44.3029 40.0792V40.0701Z" fill="#A18C60"/>
</g>
<defs>
<clipPath id="clip0_993_1344">
<rect width="54.4681" height="51.2641" fill="white"/>
</clipPath>
</defs>
</svg>
