<svg width="55" height="36" viewBox="0 0 55 36" fill="none" xmlns="http://www.w3.org/2000/svg">
<g clip-path="url(#clip0_993_1374)">
<mask id="mask0_993_1374" style="mask-type:luminance" maskUnits="userSpaceOnUse" x="0" y="0" width="55" height="36">
<path d="M54.4681 0H0V35.5276H54.4681V0Z" fill="white"/>
</mask>
<g mask="url(#mask0_993_1374)">
<path d="M20.8852 4.64753C21.0634 4.64753 21.2438 4.48872 21.6335 4.04166C22.1567 3.44162 22.5246 2.75852 22.5246 2.11689C22.5246 1.01207 21.5267 0.0141602 20.6 0.0141602C20.4575 0.0141602 20.2436 0.192357 20.0654 0.6912C19.8872 1.22591 19.579 2.09672 19.5664 2.65149C19.5574 3.04992 19.602 3.40003 19.8159 3.68526C20.1367 4.0773 20.6 4.64753 20.8852 4.64753Z" fill="#F47F61"/>
<path d="M54.4012 23.4417C54.4233 23.2712 54.2011 23.2674 53.9972 23.2875C53.7487 23.3119 53.605 23.3231 52.8209 23.5013C52.215 23.6439 51.217 23.9291 50.0409 24.3924C48.33 25.0695 47.7954 25.4259 47.332 25.4259C46.7975 25.4259 47.4747 23.6082 47.6529 22.9668C47.9736 21.7907 48.2232 21.0065 48.5084 20.1513C48.7577 19.4383 48.9716 18.8681 48.33 18.8681C47.7241 18.8681 46.7975 19.7235 46.334 19.7235C46.1558 19.7235 45.8706 19.3314 45.3718 18.9749C44.6588 18.476 44.2311 18.084 43.4827 18.084C42.663 18.084 42.271 18.2622 41.3444 19.5095C40.3935 20.7773 40.0431 21.3946 39.6998 22.1031C38.8367 22.8816 37.8067 23.6886 37.0316 24.4638C36.0337 25.4617 35.4989 25.9608 35.285 25.9608C34.9644 25.9608 35.6059 24.4995 35.8909 23.7509C36.3186 22.6103 36.889 21.2202 37.1027 20.8638C37.2873 20.1029 36.1697 19.2973 35.7183 19.281C35.2673 19.2647 34.9999 19.5094 34.8217 19.7945C34.6435 20.0798 32.1485 23.5013 30.8297 25.2836C30.3309 25.9608 29.9032 26.6379 29.6893 26.6379C29.4754 26.6379 29.7961 25.426 29.9743 24.8558C30.2239 24.0717 30.8654 21.755 30.8654 21.363C30.8654 20.7214 30.2238 20.2224 29.9743 20.0799C29.7607 19.9731 29.3301 19.8042 29.0292 20.2071C28.4221 21.0197 27.0434 22.6102 26.5527 23.0738C25.9111 23.6797 25.4479 24.1787 25.341 24.1787C25.0203 24.1787 25.6261 22.86 25.7686 22.4677C25.9824 21.933 26.0895 21.5056 26.0538 21.149C26.018 20.7569 25.669 20.2897 25.127 19.9016C24.847 19.7293 24.4734 19.7998 24.0811 20.2688C23.689 20.738 22.2525 22.4554 21.1707 23.5371C20.6006 24.1071 20.3511 24.321 20.2086 24.321C20.0661 24.321 20.3511 23.7508 20.4935 23.5013C20.7075 23.1449 21.2064 21.9688 21.3848 21.5767C21.563 21.149 21.6175 20.8706 21.5461 20.5856C21.4742 20.3464 21.2578 19.8178 20.8688 19.7414C20.1732 19.6049 17.9186 19.6728 16.9563 19.6728C15.7801 19.6728 12.5368 19.9937 11.717 20.3858C11.5031 20.4926 11.3605 20.7777 11.3605 21.0985C11.3605 21.3836 11.3962 22.4172 11.6815 22.8093C11.7883 22.9518 11.8952 23.0232 12.0735 23.0232C12.3228 23.0232 12.5368 22.8449 13.0713 22.5955C14.7464 21.8113 17.7761 21.1342 19.3799 21.1342C18.881 22.5599 14.7714 31.2207 14.1496 32.5543C13.5275 33.888 13.9557 34.7305 14.312 35.1581C14.7091 35.6476 15.2187 35.4411 15.4324 34.9422C15.896 33.8728 18.355 29.0257 18.8186 28.1702C19.2817 27.3149 19.3174 27.2079 19.959 26.5308C20.565 25.8892 21.4916 24.9625 21.9907 24.4636C22.3113 24.1428 22.5965 23.8577 22.7033 23.8577C22.739 23.8577 22.9886 24.0359 22.8458 24.3924C22.4538 25.3547 21.8363 27.0749 20.9479 29.0589C20.0597 31.0428 21.9275 32.0889 22.3022 31.3756C22.937 30.1677 24.3067 27.8744 24.913 26.9585C25.5193 26.0428 27.6932 23.5013 28.1921 22.931C28.3703 22.7173 28.5841 22.4322 28.7268 22.4322C28.8336 22.4322 28.798 22.6103 28.5841 23.1093C28.1921 24.0002 27.3366 26.424 26.9446 27.4219C26.5525 28.4198 26.2354 29.2969 26.1286 29.5821C25.5893 31.1232 27.3181 32.5081 27.9106 31.6849C28.5031 30.8619 29.8316 28.8831 30.7939 27.4932C31.7564 26.0675 32.6473 24.9626 32.9325 24.5706C33.1107 24.321 33.2889 24.0716 33.3602 24.0716C33.467 24.0716 33.467 24.2499 33.2888 24.7844C32.8611 26.0675 32.2822 27.6662 32.0431 28.655C31.6545 30.129 33.2444 31.5224 34.0747 30.5082C34.9047 29.494 37.6808 25.5593 37.9221 25.2835C38.0421 25.1337 38.489 24.5564 38.5227 24.6506C38.3753 25.0153 37.9764 26.7831 37.941 27.0328C37.6608 29.2182 39.3706 30.0773 40.0704 29.6385C40.967 29.1061 43.6604 25.3547 44.2663 24.4995C44.5516 24.1073 44.7298 24.0003 44.801 24.0003C44.8722 24.0003 44.8367 24.2143 44.801 24.535C44.7296 25.1409 44.5318 25.9448 44.4444 26.9231C44.3571 27.9014 44.8895 28.9942 45.8346 28.9547C46.476 28.9547 46.7969 28.028 50.0759 26.0321C51.3591 25.248 52.5709 24.5352 53.9965 24.25C54.1747 24.2145 54.3171 24.2135 54.347 24.0377C54.3718 23.8967 54.4012 23.4417 54.4012 23.4417ZM45.6569 20.5787C45.6215 20.8639 45.3004 21.6481 44.6589 22.3608C43.7681 23.3231 42.4492 24.9626 41.7721 25.7824C41.4869 26.1387 41.0948 26.6733 40.6672 26.6733C40.489 26.6733 40.4176 26.4595 40.5604 25.9607C40.7386 25.3903 40.9168 24.3567 41.9861 22.5745C42.8056 21.1846 43.7324 20.2579 43.9107 20.0796C44.0888 19.9015 44.1959 19.8302 44.5523 19.8302C44.8372 19.8303 45.7283 20.1154 45.6569 20.5787Z" fill="#F47F61"/>
<path d="M36.7818 14.3412C36.6037 14.8759 36.3541 15.9807 36.2827 16.3015C36.2116 16.6935 36.3184 17.0499 36.5324 17.3351C36.8532 17.7272 37.3164 18.2975 37.6016 18.2975C37.7798 18.2975 38.0293 18.1905 38.3501 17.6916C38.6707 17.1569 39.2412 16.4085 39.2412 15.7669C39.2412 14.6621 38.2433 13.6641 37.3164 13.6641C37.1739 13.6641 36.96 13.8423 36.7818 14.3412Z" fill="#F47F61"/>
<path d="M15.2547 8.24684C15.9319 7.99726 16.8585 7.71225 17.5 7.71225C17.7851 7.71225 17.8921 7.71225 17.7494 8.03289C17.6069 8.38929 17.0366 9.95762 16.5734 11.4901C16.1814 12.7376 15.5837 14.758 15.5123 15.1858C15.2919 16.8503 16.5994 18.3446 17.1518 17.3957C17.6828 16.7382 19.1941 14.6814 20.738 12.594C21.1657 12.0592 21.6701 11.3476 22.0978 10.9199C22.1691 10.8485 22.2047 10.8129 22.2404 10.8129C22.2758 10.8129 22.2404 10.9199 22.2047 10.9912L21.6343 12.4169C21.4563 12.8444 21.278 13.5575 21.2423 13.807C20.738 15.8068 22.5746 16.8895 23.577 16.1804C24.3244 15.6573 24.9219 14.7234 25.5192 13.9852C26.3984 12.8988 26.9807 12.0249 27.6222 11.2407C27.9075 10.8843 28.0499 10.7419 28.1213 10.7419C28.1924 10.7419 28.1567 10.9556 28.1213 11.2765C28.0499 11.8823 27.8538 12.718 27.8004 13.6645C27.7239 15.0224 28.1722 15.6575 29.1193 15.5892C29.761 15.5892 30.153 14.6269 33.2536 12.7021C34.3943 11.9895 35.5704 11.3833 36.9603 11.0982C37.1028 11.0626 37.1769 10.9892 37.2182 10.8906C37.2776 10.7488 37.3076 10.4546 37.2813 10.2784C37.2655 10.1727 37.1796 10.136 37.0833 10.1341C36.8337 10.1297 36.5683 10.1715 35.8199 10.3498C35.2141 10.4923 34.2515 10.7419 33.2181 11.1339C31.5072 11.7755 31.0438 12.1317 30.5804 12.1317C30.0816 12.1317 30.7231 10.3854 30.9013 9.74383C31.222 8.60315 31.4358 7.8548 31.721 6.99957C31.9348 6.32219 32.1844 5.75195 31.5786 5.75195C30.9727 5.75195 30.2597 6.50039 29.7963 6.50039C29.6181 6.50039 29.1547 6.10835 28.5845 5.75195C27.729 5.21726 27.5866 5.00342 26.8026 5.00342C26.2679 5.00342 25.6976 5.18161 25.0916 5.85887C24.5571 6.46475 23.6305 7.81905 22.9886 8.92401C21.991 9.67252 20.6007 10.8129 19.7099 11.6684C19.0328 12.31 18.8187 12.5239 18.7118 12.5239C18.4981 12.5239 18.605 12.1674 18.7118 11.8822C18.8545 11.4546 19.9237 8.71013 20.0662 8.31812C20.2088 7.92609 20.2896 7.02748 19.8878 6.46475C19.4491 5.96277 17.2863 5.75195 15.7178 5.75195C14.328 5.75195 13.6558 5.87378 13.2587 6.00143C12.8554 6.13099 13.1163 7.14212 13.1873 7.49841C13.2587 7.78353 13.3295 8.19428 13.8641 8.37248C13.0444 10.2259 12.5815 11.3476 11.5835 12.9872C10.0153 15.589 9.48078 16.3019 8.9104 16.3019C8.5184 16.3019 8.62521 15.589 8.9104 14.4484C9.48078 12.2032 10.7589 7.80359 10.9502 7.10234C11.1743 6.2805 11.279 5.70971 10.3524 5.49598C10.0316 5.4247 7.31259 5.5964 6.2016 5.74512C3.26951 6.13738 1.53035 6.39258 0.496684 6.74897C0.0690084 6.89153 0.0690085 7.10559 0.0332568 7.39071C-0.00227079 7.71146 0.104648 8.63813 0.354125 9.13703C0.425405 9.27958 0.532324 9.35098 0.674882 9.38673C0.924475 9.45805 1.24511 9.24418 1.81546 9.03013C3.24116 8.49554 6.0568 7.53338 8.48041 7.42624C8.05273 8.67371 7.55905 10.6617 7.19974 12.0606C6.4485 14.9849 6.43001 15.8455 6.43001 16.8541C6.43001 19.0223 7.81222 19.8428 8.44734 19.3572C9.00725 18.9291 9.47925 18.4435 9.81099 18.0122C10.3713 17.2837 11.7974 15.7673 13.5793 12.1677C14.328 10.6348 14.7912 9.52996 15.2547 8.24684ZM24.0226 12.6664C24.2007 12.0962 24.3432 11.0982 25.3769 9.38749C26.1964 8.03301 27.1232 7.03509 27.3016 6.8569C27.444 6.71434 27.5866 6.64306 27.9075 6.64306C28.1924 6.64306 29.0836 6.89254 29.0121 7.35596C28.9765 7.64097 28.62 8.46068 27.9785 9.17345C27.1231 10.1004 25.8402 11.7397 25.1985 12.524C24.9133 12.8803 24.5213 13.3081 24.2006 13.3081C23.9512 13.308 23.8798 13.1655 24.0226 12.6664Z" fill="#F47F61"/>
</g>
</g>
<defs>
<clipPath id="clip0_993_1374">
<rect width="54.4681" height="35.7447" fill="white"/>
</clipPath>
</defs>
</svg>
